<?xml version="1.0" standalone="no"?>
<!DOCTYPE svg PUBLIC "-//W3C//DTD SVG 20010904//EN"
 "http://www.w3.org/TR/2001/REC-SVG-20010904/DTD/svg10.dtd">
<svg version="1.0" xmlns="http://www.w3.org/2000/svg"
 width="150.000000pt" height="150.000000pt" viewBox="0 0 150.000000 150.000000"
 preserveAspectRatio="xMidYMid meet">
<metadata>
Created by potrace 1.11, written by Peter Selinger 2001-2013
</metadata>
<g transform="translate(0.000000,150.000000) scale(0.100000,-0.100000)"
fill="#000000" stroke="none">
<path d="M694 1490 c-3 -3 -9 -5 -12 -5 -7 -1 -83 -17 -92 -20 -3 -1 -14 -5
-25 -9 -11 -4 -33 -12 -50 -18 -16 -5 -39 -14 -50 -19 -11 -5 -31 -13 -45 -19
-14 -6 -38 -19 -55 -30 -16 -11 -39 -24 -50 -29 -11 -5 -17 -10 -12 -10 4 -1
-11 -17 -33 -37 -22 -20 -37 -40 -34 -45 3 -5 1 -9 -3 -9 -12 0 -36 -67 -39
-110 -5 -48 -5 -429 -2 -462 2 -15 7 -30 11 -34 4 -4 2 -13 -4 -21 -6 -7 -7
-13 -3 -13 5 0 11 -30 13 -67 1 -38 4 -88 5 -113 3 -60 15 -98 42 -141 13 -20
20 -40 16 -44 -4 -4 0 -5 8 -3 9 2 14 -3 12 -12 -2 -8 -1 -12 3 -8 4 4 22 -9
41 -28 19 -19 42 -34 51 -34 9 0 13 -3 10 -7 -4 -3 11 -14 33 -24 22 -10 40
-23 40 -30 0 -7 3 -9 6 -6 4 3 16 1 28 -5 11 -7 23 -13 26 -14 3 -1 15 -5 28
-9 12 -4 22 -10 22 -14 0 -3 12 -7 26 -8 15 0 30 -7 35 -15 7 -10 9 -10 9 0 0
8 5 10 12 5 22 -13 69 -13 62 0 -5 9 -3 9 6 0 10 -9 20 -9 47 2 18 8 33 12 33
9 0 -2 13 2 29 10 16 9 32 12 36 8 5 -4 5 -1 1 6 -6 11 11 17 37 13 4 0 7 3 7
9 0 5 21 19 47 31 25 12 53 27 60 35 14 13 28 18 46 15 5 -1 6 2 3 7 -3 5 9
17 27 27 30 17 59 44 97 91 9 11 16 21 17 24 1 3 7 20 14 38 6 17 16 32 22 32
8 0 7 4 -2 9 -9 6 -10 14 -3 27 9 18 20 68 27 124 2 14 4 25 5 25 1 0 4 14 6
30 2 17 8 50 13 75 5 25 7 48 5 52 -3 5 -1 8 3 8 5 0 10 10 10 23 1 12 5 47 8
77 12 103 10 279 -4 305 -3 6 -7 18 -8 28 -4 24 -49 112 -66 128 -46 45 -88
79 -97 79 -5 0 -10 4 -10 9 0 8 -133 76 -199 102 -32 12 -236 20 -247 9z"/>
</g>
</svg>
